<svg width="64" height="64" viewBox="0 0 64 64" fill="none" xmlns="http://www.w3.org/2000/svg">
<g clip-path="url(#clip0_119_570)">
<path d="M50.6667 8H13.3333C10.4 8 8 10.4 8 13.3333V50.6667C8 53.6 10.3733 56 13.3333 56H50.6667C53.6 56 56 53.6 56 50.6667V13.3333C56 10.4 53.6 8 50.6667 8ZM50.6667 50.6667H13.3333V42.6667H22.8267C24.6667 45.84 28.08 48 32.0267 48C35.9733 48 39.36 45.84 41.2267 42.6667H50.6667V50.6667ZM50.6667 37.3333H37.36C37.36 40.2667 34.96 42.6667 32.0267 42.6667C29.0933 42.6667 26.6933 40.2667 26.6933 37.3333H13.3333V13.3333H50.6667V37.3333Z" fill="#CA5427"/>
</g>
<defs>
<clipPath id="clip0_119_570">
<rect width="64" height="64" fill="white"/>
</clipPath>
</defs>
</svg>
