<svg width="25" height="24" viewBox="0 0 25 24" fill="none" xmlns="http://www.w3.org/2000/svg">
<g clip-path="url(#clip0_1_39)">
<path d="M4.5 6H2.5V20C2.5 21.1 3.4 22 4.5 22H18.5V20H4.5V6ZM20.5 2H8.5C7.4 2 6.5 2.9 6.5 4V16C6.5 17.1 7.4 18 8.5 18H20.5C21.6 18 22.5 17.1 22.5 16V4C22.5 2.9 21.6 2 20.5 2ZM20.5 16H8.5V4H20.5V16ZM13.5 14H15.5V11H18.5V9H15.5V6H13.5V9H10.5V11H13.5V14Z" fill="#F8F8F8"/>
</g>
<defs>
<clipPath id="clip0_1_39">
<rect width="24" height="24" fill="white" transform="translate(0.5)"/>
</clipPath>
</defs>
</svg>
