<svg width="25" height="24" viewBox="0 0 25 24" fill="none" xmlns="http://www.w3.org/2000/svg">
<g clip-path="url(#clip0_1_12)">
<path d="M12.5 4C7.5 4 3.23 7.11 1.5 11.5C3.23 15.89 7.5 19 12.5 19C17.5 19 21.77 15.89 23.5 11.5C21.77 7.11 17.5 4 12.5 4ZM12.5 16.5C9.74 16.5 7.5 14.26 7.5 11.5C7.5 8.74 9.74 6.5 12.5 6.5C15.26 6.5 17.5 8.74 17.5 11.5C17.5 14.26 15.26 16.5 12.5 16.5ZM12.5 8.5C10.84 8.5 9.5 9.84 9.5 11.5C9.5 13.16 10.84 14.5 12.5 14.5C14.16 14.5 15.5 13.16 15.5 11.5C15.5 9.84 14.16 8.5 12.5 8.5Z" fill="#D2CEDC"/>
</g>
<defs>
<clipPath id="clip0_1_12">
<rect width="24" height="24" fill="white" transform="translate(0.5)"/>
</clipPath>
</defs>
</svg>
