<svg width="27" height="24" viewBox="0 0 27 24" fill="none" xmlns="http://www.w3.org/2000/svg">
<g clip-path="url(#clip0_178_702)">
<path d="M13.8253 8C15.033 8 16.0211 7.1 16.0211 6C16.0211 4.9 15.033 4 13.8253 4C12.6176 4 11.6295 4.9 11.6295 6C11.6295 7.1 12.6176 8 13.8253 8ZM13.8253 10C12.6176 10 11.6295 10.9 11.6295 12C11.6295 13.1 12.6176 14 13.8253 14C15.033 14 16.0211 13.1 16.0211 12C16.0211 10.9 15.033 10 13.8253 10ZM13.8253 16C12.6176 16 11.6295 16.9 11.6295 18C11.6295 19.1 12.6176 20 13.8253 20C15.033 20 16.0211 19.1 16.0211 18C16.0211 16.9 15.033 16 13.8253 16Z" fill="#D8D8D8"/>
</g>
<defs>
<clipPath id="clip0_178_702">
<rect width="26.3493" height="24" fill="white" transform="translate(0.650635)"/>
</clipPath>
</defs>
</svg>
